<svg width="267" height="75" viewBox="0 0 267 75" fill="none" xmlns="http://www.w3.org/2000/svg">
<path d="M51.407 36.7321C51.407 40.1851 50.0018 43.4968 47.5005 45.9385C44.9993 48.3802 41.6068 49.7519 38.0695 49.7519C34.5321 49.7519 31.1396 48.3802 28.6384 45.9385C26.1371 43.4968 24.7319 40.1851 24.7319 36.7321H17.1104C17.1618 41.4626 18.891 46.0296 22.0037 49.6557C25.1163 53.2818 29.42 55.7429 34.1823 56.62C38.9446 57.4971 43.8711 56.7361 48.1232 54.4665C52.3754 52.197 55.6905 48.559 57.5042 44.172H67.4884C65.6444 51.1019 61.3028 57.1506 55.2599 61.2085C49.217 65.2665 41.878 67.0617 34.5889 66.2649C27.2999 65.4681 20.5494 62.1327 15.5757 56.8705C10.602 51.6082 7.73854 44.7719 7.51046 37.6155C7.28239 30.459 9.70501 23.4622 14.334 17.9084C18.963 12.3545 25.488 8.6159 32.7122 7.37833C39.9364 6.14075 47.3756 7.48716 53.6652 11.1706C59.9548 14.854 64.6731 20.6275 66.9549 27.4322H74.8812C72.381 18.3395 66.4271 10.5177 58.23 5.55727C50.033 0.596894 40.2083 -1.12963 30.7537 0.728771C21.2992 2.58718 12.9247 7.89098 7.33309 15.5617C1.7415 23.2324 -0.647349 32.6941 0.652311 42.0227C1.95197 51.3514 6.84256 59.8467 14.3296 65.7811C21.8166 71.7155 31.338 74.6434 40.9576 73.9695C50.5771 73.2957 59.5726 69.0705 66.1149 62.1534C72.6572 55.2362 76.255 46.1463 76.1768 36.7321H51.407Z" fill="#252525"/>
<path d="M110.589 16.2632C112.517 16.2632 114.264 16.7129 115.832 17.6122C117.425 18.4858 118.672 19.732 119.571 21.3508C120.471 22.9439 120.92 24.8067 120.92 26.9394C120.92 29.072 120.471 30.9478 119.571 32.5665C118.672 34.1596 117.425 35.4058 115.832 36.3051C114.264 37.1787 112.517 37.6155 110.589 37.6155C107.942 37.6155 105.861 36.7804 104.345 35.1103V44.7843H98.3311V16.5716H104.075V18.9612C105.565 17.1626 107.737 16.2632 110.589 16.2632ZM109.549 32.6821C111.09 32.6821 112.35 32.1682 113.326 31.1405C114.329 30.087 114.83 28.6866 114.83 26.9394C114.83 25.1921 114.329 23.8046 113.326 22.7768C112.35 21.7234 111.09 21.1966 109.549 21.1966C108.007 21.1966 106.735 21.7234 105.732 22.7768C104.756 23.8046 104.267 25.1921 104.267 26.9394C104.267 28.6866 104.756 30.087 105.732 31.1405C106.735 32.1682 108.007 32.6821 109.549 32.6821Z" fill="#252525"/>
<path d="M124.946 16.5716H130.959V37.3072H124.946V16.5716ZM127.953 13.6809C126.847 13.6809 125.948 13.3597 125.254 12.7174C124.56 12.075 124.213 11.2785 124.213 10.3278C124.213 9.37706 124.56 8.58053 125.254 7.93816C125.948 7.29579 126.847 6.97461 127.953 6.97461C129.058 6.97461 129.957 7.28295 130.651 7.89962C131.345 8.51629 131.692 9.28713 131.692 10.2121C131.692 11.2142 131.345 12.0493 130.651 12.7174C129.957 13.3597 129.058 13.6809 127.953 13.6809Z" fill="#252525"/>
<path d="M146.563 37.6155C144.353 37.6155 142.361 37.1659 140.588 36.2666C138.84 35.3415 137.465 34.0697 136.463 32.4509C135.487 30.8321 134.998 28.995 134.998 26.9394C134.998 24.8838 135.487 23.0466 136.463 21.4279C137.465 19.8091 138.84 18.5501 140.588 17.6507C142.361 16.7257 144.353 16.2632 146.563 16.2632C148.747 16.2632 150.649 16.7257 152.268 17.6507C153.913 18.5501 155.108 19.8476 155.853 21.5435L151.189 24.0487C150.109 22.1473 148.554 21.1966 146.524 21.1966C144.957 21.1966 143.659 21.7105 142.631 22.7383C141.603 23.7661 141.089 25.1664 141.089 26.9394C141.089 28.7123 141.603 30.1127 142.631 31.1405C143.659 32.1682 144.957 32.6821 146.524 32.6821C148.58 32.6821 150.135 31.7314 151.189 29.83L155.853 32.3738C155.108 34.0183 153.913 35.303 152.268 36.228C150.649 37.153 148.747 37.6155 146.563 37.6155Z" fill="#252525"/>
<path d="M166.293 37.6155C164.571 37.6155 162.887 37.41 161.243 36.9989C159.598 36.562 158.287 36.0224 157.311 35.3801L159.315 31.0634C160.24 31.6544 161.358 32.1426 162.669 32.528C163.98 32.8877 165.265 33.0676 166.524 33.0676C169.068 33.0676 170.34 32.438 170.34 31.179C170.34 30.588 169.993 30.1641 169.299 29.9071C168.605 29.6502 167.539 29.4318 166.1 29.2519C164.404 28.995 163.003 28.6995 161.898 28.3654C160.793 28.0314 159.829 27.4404 159.007 26.5925C158.21 25.7446 157.812 24.5369 157.812 22.9696C157.812 21.6591 158.185 20.5029 158.93 19.5008C159.701 18.473 160.806 17.6764 162.245 17.1112C163.71 16.5459 165.432 16.2632 167.41 16.2632C168.875 16.2632 170.327 16.4303 171.766 16.7643C173.231 17.0726 174.439 17.5094 175.39 18.0747L173.385 22.3529C171.561 21.3251 169.569 20.8112 167.41 20.8112C166.125 20.8112 165.162 20.9911 164.519 21.3508C163.877 21.7105 163.556 22.173 163.556 22.7383C163.556 23.3807 163.903 23.8303 164.596 24.0873C165.29 24.3442 166.395 24.5883 167.912 24.8196C169.608 25.1022 170.995 25.4105 172.075 25.7446C173.154 26.0529 174.092 26.631 174.889 27.479C175.685 28.3269 176.084 29.5088 176.084 31.0248C176.084 32.3096 175.698 33.453 174.927 34.4551C174.156 35.4572 173.026 36.2409 171.535 36.8061C170.07 37.3457 168.323 37.6155 166.293 37.6155Z" fill="#252525"/>
<path d="M189.662 37.6155C187.478 37.6155 185.512 37.1659 183.764 36.2666C182.043 35.3415 180.693 34.0697 179.717 32.4509C178.74 30.8321 178.252 28.995 178.252 26.9394C178.252 24.8838 178.74 23.0466 179.717 21.4279C180.693 19.8091 182.043 18.5501 183.764 17.6507C185.512 16.7257 187.478 16.2632 189.662 16.2632C191.847 16.2632 193.8 16.7257 195.522 17.6507C197.243 18.5501 198.593 19.8091 199.569 21.4279C200.546 23.0466 201.034 24.8838 201.034 26.9394C201.034 28.995 200.546 30.8321 199.569 32.4509C198.593 34.0697 197.243 35.3415 195.522 36.2666C193.8 37.1659 191.847 37.6155 189.662 37.6155ZM189.662 32.6821C191.204 32.6821 192.463 32.1682 193.44 31.1405C194.442 30.087 194.943 28.6866 194.943 26.9394C194.943 25.1921 194.442 23.8046 193.44 22.7768C192.463 21.7234 191.204 21.1966 189.662 21.1966C188.12 21.1966 186.848 21.7234 185.846 22.7768C184.844 23.8046 184.343 25.1921 184.343 26.9394C184.343 28.6866 184.844 30.087 185.846 31.1405C186.848 32.1682 188.12 32.6821 189.662 32.6821Z" fill="#252525"/>
<path d="M231.613 16.2632C234.209 16.2632 236.265 17.0341 237.781 18.5758C239.323 20.0917 240.094 22.3786 240.094 25.4362V37.3072H234.08V26.3613C234.08 24.7168 233.733 23.4963 233.039 22.6998C232.371 21.8775 231.408 21.4664 230.148 21.4664C228.735 21.4664 227.617 21.9289 226.795 22.8539C225.972 23.7532 225.561 25.1022 225.561 26.9008V37.3072H219.548V26.3613C219.548 23.098 218.237 21.4664 215.616 21.4664C214.228 21.4664 213.123 21.9289 212.301 22.8539C211.478 23.7532 211.067 25.1022 211.067 26.9008V37.3072H205.054V16.5716H210.797V18.9612C211.568 18.0876 212.506 17.4195 213.611 16.957C214.742 16.4945 215.975 16.2632 217.312 16.2632C218.777 16.2632 220.1 16.5587 221.282 17.1497C222.464 17.715 223.415 18.5501 224.135 19.6549C224.983 18.5758 226.049 17.7407 227.334 17.1497C228.645 16.5587 230.071 16.2632 231.613 16.2632Z" fill="#252525"/>
<path d="M266.025 27.0165C266.025 27.0935 265.986 27.6331 265.909 28.6352H250.22C250.502 29.92 251.171 30.9349 252.224 31.68C253.278 32.4252 254.589 32.7978 256.156 32.7978C257.236 32.7978 258.186 32.6436 259.009 32.3353C259.857 32.0012 260.641 31.4873 261.36 30.7936L264.56 34.2624C262.607 36.4978 259.754 37.6155 256.002 37.6155C253.663 37.6155 251.595 37.1659 249.796 36.2666C247.997 35.3415 246.609 34.0697 245.633 32.4509C244.656 30.8321 244.168 28.995 244.168 26.9394C244.168 24.9095 244.643 23.0852 245.594 21.4664C246.571 19.822 247.894 18.5501 249.564 17.6507C251.261 16.7257 253.149 16.2632 255.231 16.2632C257.261 16.2632 259.099 16.7 260.743 17.5737C262.388 18.4473 263.673 19.7063 264.598 21.3508C265.549 22.9696 266.025 24.8581 266.025 27.0165ZM255.27 20.8112C253.908 20.8112 252.764 21.1966 251.839 21.9675C250.914 22.7383 250.348 23.7918 250.143 25.1279H260.358C260.152 23.8175 259.587 22.7768 258.662 22.006C257.737 21.2095 256.606 20.8112 255.27 20.8112Z" fill="#252525"/>
<path d="M108.309 59.3432C109.35 59.571 110.149 60.0266 110.707 60.71C111.28 61.3782 111.567 62.2437 111.567 63.3068C111.567 64.6735 111.062 65.7289 110.051 66.473C109.056 67.2019 107.577 67.5664 105.616 67.5664H98.3311V51.6212H105.164C106.929 51.6212 108.294 51.9781 109.259 52.6918C110.24 53.4056 110.73 54.4154 110.73 55.7214C110.73 56.6022 110.511 57.3539 110.074 57.9765C109.651 58.5839 109.063 59.0395 108.309 59.3432ZM100.005 53.0107V58.7965H105.051C106.333 58.7965 107.321 58.5536 108.015 58.0676C108.709 57.5665 109.056 56.8452 109.056 55.9036C109.056 54.9621 108.709 54.2484 108.015 53.7624C107.321 53.2613 106.333 53.0107 105.051 53.0107H100.005ZM105.594 66.1769C107.012 66.1769 108.083 65.9339 108.807 65.448C109.531 64.962 109.893 64.2027 109.893 63.1701C109.893 61.1807 108.46 60.1861 105.594 60.1861H100.005V66.1769H105.594Z" fill="#252525"/>
<path d="M120.487 62.0539V67.5664H118.836V62.0539L112.5 51.6212H114.288L119.718 60.5733L125.148 51.6212H126.822L120.487 62.0539Z" fill="#252525"/>
<path d="M157.084 51.6212L151.744 67.5664H149.979L145.341 53.9674L140.68 67.5664H138.938L133.598 51.6212H135.318L139.888 65.3341L144.617 51.6212H146.178L150.839 65.4024L155.477 51.6212H157.084Z" fill="#252525"/>
<path d="M160.153 51.6212H161.828V67.5664H160.153V51.6212Z" fill="#252525"/>
<path d="M171.89 60.0722L168.655 63.3751V67.5664H166.981V51.6212H168.655V61.2567L177.954 51.6212H179.877L173.022 58.8421L180.352 67.5664H178.361L171.89 60.0722Z" fill="#252525"/>
<path d="M183.066 51.6212H184.74V67.5664H183.066V51.6212Z" fill="#252525"/>
<path d="M206.342 51.6212V67.5664H204.736V54.8103L198.514 65.5391H197.722L191.5 54.8786V67.5664H189.893V51.6212H191.274L198.152 63.4434L204.962 51.6212H206.342Z" fill="#252525"/>
<path d="M222.702 66.1086V67.5664H211.503V51.6212H222.363V53.0791H213.177V58.751H221.367V60.1861H213.177V66.1086H222.702Z" fill="#252525"/>
<path d="M226.638 51.6212H233.086C234.76 51.6212 236.238 51.9629 237.521 52.6463C238.803 53.3144 239.798 54.256 240.507 55.4708C241.216 56.6705 241.571 58.0448 241.571 59.5938C241.571 61.1428 241.216 62.5247 240.507 63.7396C239.798 64.9392 238.803 65.8808 237.521 66.5641C236.238 67.2323 234.76 67.5664 233.086 67.5664H226.638V51.6212ZM232.995 66.1086C234.383 66.1086 235.597 65.8352 236.638 65.2885C237.679 64.7266 238.486 63.9598 239.059 62.9879C239.632 62.0008 239.919 60.8694 239.919 59.5938C239.919 58.3182 239.632 57.1944 239.059 56.2225C238.486 55.2355 237.679 54.4686 236.638 53.9219C235.597 53.36 234.383 53.0791 232.995 53.0791H228.312V66.1086H232.995Z" fill="#252525"/>
<path d="M245.33 51.6212H247.004V67.5664H245.33V51.6212Z" fill="#252525"/>
<path d="M262.09 63.3068H253.266L251.366 67.5664H249.624L256.864 51.6212H258.515L265.756 67.5664H263.991L262.09 63.3068ZM261.479 61.94L257.678 53.3752L253.877 61.94H261.479Z" fill="#252525"/>
</svg>
