<svg width="149" height="40" viewBox="0 0 149 40" fill="none" xmlns="http://www.w3.org/2000/svg">
<path d="M26.9406 19.8379C26.9406 21.7028 26.1997 23.4913 24.8811 24.81C23.5624 26.1286 21.7739 26.8695 19.909 26.8695C18.044 26.8695 16.2555 26.1286 14.9368 24.81C13.6182 23.4913 12.8773 21.7028 12.8773 19.8379H8.85925C8.88636 22.3927 9.798 24.8592 11.439 26.8175C13.08 28.7759 15.3489 30.105 17.8596 30.5787C20.3703 31.0524 22.9676 30.6414 25.2094 29.4157C27.4511 28.19 29.1988 26.2252 30.155 23.8559H35.4187C34.4465 27.5986 32.1576 30.8653 28.9718 33.0568C25.786 35.2484 21.9168 36.218 18.074 35.7876C14.2312 35.3573 10.6723 33.556 8.05018 30.714C5.42803 27.872 3.91838 24.1799 3.79814 20.315C3.6779 16.45 4.95511 12.6712 7.39553 9.67175C9.83595 6.67228 13.276 4.65318 17.0846 3.98481C20.8932 3.31643 24.8152 4.04358 28.1311 6.03289C31.447 8.0222 33.9345 11.1403 35.1374 14.8153H39.3162C37.9981 9.90457 34.8592 5.68026 30.5377 3.00131C26.2162 0.322364 21.0366 -0.61008 16.0521 0.393587C11.0676 1.39725 6.65254 4.26168 3.70463 8.40439C0.756719 12.5471 -0.502689 17.6571 0.182496 22.6952C0.867682 27.7333 3.44602 32.3214 7.39321 35.5263C11.3404 38.7313 16.3601 40.3126 21.4316 39.9487C26.503 39.5847 31.2455 37.3029 34.6946 33.5671C38.1437 29.8314 40.0405 24.9222 39.9993 19.8379H26.9406Z" fill="#252525"/>
<path d="M52.5558 11.2894C52.5558 7.96449 55.1877 5.5436 58.7236 5.5436C59.6217 5.4719 60.5238 5.61697 61.3542 5.96658C62.1845 6.3162 62.9187 6.86014 63.495 7.55263L61.486 9.34068C61.1726 8.92664 60.767 8.59126 60.3015 8.36111C59.836 8.13097 59.3233 8.01237 58.8039 8.01471C58.3716 7.9959 57.9401 8.06771 57.5371 8.22553C57.1342 8.38335 56.7686 8.62368 56.4641 8.93111C56.1595 9.23853 55.9225 9.60626 55.7685 10.0107C55.6144 10.4151 55.5466 10.8472 55.5694 11.2794C55.5495 11.7099 55.6194 12.1399 55.7748 12.5419C55.9302 12.9439 56.1675 13.3091 56.4718 13.6143C56.7761 13.9196 57.1406 14.1581 57.5421 14.3147C57.9436 14.4713 58.3734 14.5426 58.8039 14.524C59.3233 14.5263 59.836 14.4077 60.3015 14.1776C60.767 13.9474 61.1726 13.6121 61.486 13.198L63.495 14.9861C62.9171 15.6766 62.1826 16.2192 61.3527 16.5686C60.5228 16.9181 59.6214 17.0643 58.7236 16.9951C55.1877 17.0152 52.5558 14.6144 52.5558 11.2894Z" fill="#252525"/>
<path d="M65.6448 12.0629V5.77466H68.6583V11.9625C68.6583 13.6702 69.4218 14.5541 70.8884 14.5541C72.355 14.5541 73.1485 13.6702 73.1485 11.9625V5.77466H76.1621V12.0629C76.1621 15.1368 74.2435 17.0353 70.9386 17.0353C67.6337 17.0353 65.6448 15.1368 65.6448 12.0629Z" fill="#252525"/>
<path d="M84.0776 13.861H82.1892V16.8244H79.1756V5.77466H84.1982C87.2117 5.77466 89.2208 7.29148 89.2208 9.853C89.2423 10.5947 89.0389 11.3255 88.6373 11.9494C88.2356 12.5734 87.6547 13.0612 86.9707 13.3487L89.4016 16.8244H86.1369L84.0776 13.861ZM83.9973 8.13528H82.1892V11.5607H83.9973C85.4237 11.5607 86.1369 10.9278 86.1369 9.853C86.1369 8.77817 85.4237 8.13528 83.9973 8.13528Z" fill="#252525"/>
<path d="M107.764 8.13528H104.289V5.77466H114.334V8.13528H110.858V16.8244H107.845L107.764 8.13528Z" fill="#252525"/>
<path d="M125.233 14.5039V16.8244H116.343V5.77466H125.032V8.09509H119.356V10.1041H124.379V12.3141H119.356V14.4939L125.233 14.5039Z" fill="#252525"/>
<path d="M128.337 5.77466H133.55C137.327 5.77466 139.828 7.88415 139.828 11.3096C139.828 14.735 137.327 16.8244 133.55 16.8244H128.337V5.77466ZM133.42 14.4236C135.429 14.4236 136.724 13.3085 136.724 11.2895C136.747 10.8563 136.675 10.4234 136.515 10.0204C136.355 9.61742 136.109 9.25376 135.795 8.9543C135.482 8.65485 135.107 8.42665 134.697 8.2853C134.287 8.14395 133.851 8.09277 133.42 8.13528H131.41V14.4236H133.42Z" fill="#252525"/>
<path d="M52.5559 27.3717C52.5559 24.0468 55.1877 21.6259 58.7236 21.6259C59.6203 21.5533 60.5213 21.698 61.3502 22.0478C62.1791 22.3975 62.9114 22.9419 63.4851 23.6349L61.5263 25.423C61.2128 25.0089 60.8073 24.6736 60.3417 24.4434C59.8762 24.2133 59.3635 24.0947 58.8442 24.097C57.981 24.097 57.1532 24.4399 56.5428 25.0503C55.9325 25.6606 55.5896 26.4885 55.5896 27.3517C55.5896 28.2148 55.9325 29.0427 56.5428 29.653C57.1532 30.2634 57.981 30.6063 58.8442 30.6063C59.3635 30.6086 59.8762 30.49 60.3417 30.2599C60.8073 30.0297 61.2128 29.6944 61.5263 29.2803L63.4851 31.0684C62.9103 31.7601 62.1778 32.3036 61.3492 32.6532C60.5206 33.0028 59.6202 33.1483 58.7236 33.0774C55.1877 33.0975 52.5559 30.6967 52.5559 27.3717Z" fill="#252525"/>
<path d="M64.6403 27.3717C64.6403 24.0467 67.2821 21.6259 70.8482 21.6259C74.4142 21.6259 77.0561 24.0467 77.0561 27.3717C77.0561 30.6967 74.4243 33.0974 70.8482 33.0974C67.2721 33.0974 64.6403 30.6766 64.6403 27.3717ZM73.9823 27.3717C73.9625 26.7541 73.7612 26.156 73.4035 25.6521C73.0458 25.1482 72.5476 24.7609 71.971 24.5386C71.3945 24.3163 70.7652 24.2687 70.1618 24.402C69.5584 24.5352 69.0076 24.8433 68.5783 25.2878C68.149 25.7322 67.8602 26.2933 67.7479 26.901C67.6357 27.5086 67.7049 28.1359 67.9471 28.7044C68.1893 29.2729 68.5936 29.7574 69.1096 30.0974C69.6255 30.4375 70.2302 30.6179 70.8482 30.6163C71.2713 30.6238 71.6913 30.5441 72.0823 30.3822C72.4732 30.2204 72.8267 29.9798 73.1207 29.6754C73.4147 29.3711 73.6429 29.0095 73.7911 28.6132C73.9393 28.2168 74.0044 27.7943 73.9823 27.3717Z" fill="#252525"/>
<path d="M89.6628 32.8966V26.8695L86.7095 31.7314H85.3233L82.3801 27.0604V32.8966H79.5574V21.8469H82.0988L86.0566 28.2658L89.914 21.8469H92.4755V32.8966H89.6628Z" fill="#252525"/>
<path d="M105.856 32.8966V26.8695L102.902 31.7314H101.536L98.593 27.0604V32.8966H95.7502V21.8469H98.2615L102.28 28.2658L106.107 21.8469H108.668V32.8966H105.856Z" fill="#252525"/>
<path d="M111.2 27.3717C111.2 24.0467 113.831 21.6259 117.408 21.6259C120.984 21.6259 123.615 24.0467 123.615 27.3717C123.615 30.6967 120.984 33.0974 117.408 33.0974C113.831 33.0974 111.2 30.6766 111.2 27.3717ZM120.542 27.3717C120.522 26.7541 120.321 26.156 119.963 25.6521C119.605 25.1482 119.107 24.7609 118.53 24.5386C117.954 24.3163 117.325 24.2687 116.721 24.402C116.118 24.5352 115.567 24.8433 115.138 25.2878C114.708 25.7322 114.42 26.2933 114.307 26.901C114.195 27.5086 114.264 28.1359 114.507 28.7044C114.749 29.2729 115.153 29.7574 115.669 30.0974C116.185 30.4375 116.79 30.6179 117.408 30.6163C117.831 30.6238 118.251 30.5441 118.642 30.3822C119.033 30.2204 119.386 29.9798 119.68 29.6754C119.974 29.3711 120.202 29.0095 120.35 28.6132C120.499 28.2168 120.564 27.7943 120.542 27.3717Z" fill="#252525"/>
<path d="M136.684 21.8469V32.8966H134.183L129.09 26.8092V32.8966H126.077V21.8469H128.578L133.661 27.9544V21.8469H136.684Z" fill="#252525"/>
<path d="M139.085 31.892L140.14 29.6418C141.276 30.3498 142.588 30.7224 143.927 30.7167C145.273 30.7167 145.755 30.2948 145.755 29.7122C145.755 27.8538 139.356 29.3104 139.356 25.1215C139.356 23.0422 141.215 21.5655 144.319 21.5655C145.724 21.5334 147.112 21.8804 148.337 22.57L147.332 24.8202C146.388 24.2472 145.302 23.9513 144.198 23.9663C142.892 23.9663 142.35 24.4083 142.35 24.9708C142.35 26.779 148.749 25.4128 148.749 29.4811C148.749 31.5806 146.95 33.0572 143.726 33.0572C142.102 33.1002 140.496 32.6972 139.085 31.892Z" fill="#252525"/>
<path d="M102.681 10.8474V16.8243H99.6678V14.3431H95.1474V16.8243H92.1339V10.8474C92.0744 10.1385 92.1703 9.42515 92.4148 8.75711C92.6593 8.08906 93.0466 7.48237 93.5496 6.97934C94.0526 6.47632 94.6593 6.08905 95.3274 5.84454C95.9954 5.60003 96.7087 5.50417 97.4176 5.56363C100.512 5.56363 102.681 7.44208 102.681 10.8474ZM99.6678 12.0026V10.4858C99.6975 10.171 99.6611 9.8536 99.561 9.55374C99.461 9.25388 99.2994 8.97823 99.0866 8.74444C98.8738 8.51065 98.6146 8.32386 98.3255 8.19605C98.0363 8.06825 97.7237 8.00223 97.4076 8.00223C97.0915 8.00223 96.7789 8.06825 96.4897 8.19605C96.2006 8.32386 95.9413 8.51065 95.7286 8.74444C95.5158 8.97823 95.3542 9.25388 95.2542 9.55374C95.1541 9.8536 95.1177 10.171 95.1474 10.4858V12.0026H99.6678Z" fill="#252525"/>
</svg>
